<svg xmlns="http://www.w3.org/2000/svg" xmlns:xlink="http://www.w3.org/1999/xlink" width="1000" zoomAndPan="magnify" viewBox="0 0 750 149.999998" height="200" preserveAspectRatio="xMidYMid meet" version="1.0"><defs><g/><clipPath id="bbe5b15385"><rect x="0" width="364" y="0" height="51"/></clipPath><clipPath id="02b5bcf181"><rect x="0" width="286" y="0" height="30"/></clipPath></defs><g transform="matrix(1, 0, 0, 1, 193, 42)"><g clip-path="url(#bbe5b15385)"><g fill="#dffd6e" fill-opacity="1"><g transform="translate(1.200201, 40.034744)"><g><path d="M 57.5625 -29.578125 L 57.5625 0 L 51.046875 0 L 51.046875 -22.375 L 30.125 -3.046875 L 9.265625 -22.375 L 9.265625 0 L 2.75 0 L 2.75 -29.578125 L 10.1875 -29.578125 L 30.125 -10.921875 L 50.125 -29.578125 Z M 57.5625 -29.578125 "/></g></g></g><g fill="#dffd6e" fill-opacity="1"><g transform="translate(61.498553, 40.034744)"><g><path d="M 9.578125 0 L 3.046875 0 L 3.046875 -29.578125 L 9.578125 -29.578125 L 9.578125 -18.046875 L 45.796875 -18.046875 L 50.734375 -29.578125 L 57.390625 -29.578125 L 51.46875 -14.8125 L 57.390625 0 L 50.734375 0 L 45.796875 -11.59375 L 9.578125 -11.59375 Z M 9.578125 0 "/></g></g></g><g fill="#dffd6e" fill-opacity="1"><g transform="translate(121.30916, 40.034744)"><g><path d="M 11.890625 -6.46875 C 11.285156 -6.46875 10.75 -6.71875 10.28125 -7.21875 C 9.8125 -7.726562 9.578125 -8.390625 9.578125 -9.203125 L 9.578125 -29.578125 L 3.046875 -29.578125 L 3.046875 -6.46875 C 3.046875 -5.40625 3.21875 -4.476562 3.5625 -3.6875 C 3.914062 -2.894531 4.375 -2.222656 4.9375 -1.671875 C 5.507812 -1.128906 6.160156 -0.710938 6.890625 -0.421875 C 7.617188 -0.140625 8.390625 0 9.203125 0 L 57.328125 0 L 57.328125 -6.46875 Z M 11.890625 -6.46875 "/></g></g></g><g fill="#dffd6e" fill-opacity="1"><g transform="translate(181.668469, 40.034744)"><g><path d="M 3.046875 -6.46875 L 48.484375 -6.46875 C 49.085938 -6.46875 49.625 -6.648438 50.09375 -7.015625 C 50.5625 -7.378906 50.796875 -7.96875 50.796875 -8.78125 L 50.796875 -11.640625 L 9.203125 -11.640625 C 8.390625 -11.640625 7.617188 -11.78125 6.890625 -12.0625 C 6.160156 -12.351562 5.507812 -12.769531 4.9375 -13.3125 C 4.375 -13.863281 3.914062 -14.535156 3.5625 -15.328125 C 3.21875 -16.128906 3.046875 -17.054688 3.046875 -18.109375 L 3.046875 -29.578125 L 9.578125 -29.578125 L 9.578125 -20.859375 C 9.578125 -20.046875 9.78125 -19.382812 10.1875 -18.875 C 10.59375 -18.363281 11.097656 -18.109375 11.703125 -18.109375 L 50.796875 -18.109375 L 50.796875 -29.578125 L 57.328125 -29.578125 L 57.328125 -6.46875 C 57.328125 -4.394531 56.71875 -2.796875 55.5 -1.671875 C 54.28125 -0.554688 52.859375 0 51.234375 0 L 3.046875 0 Z M 3.046875 -6.46875 "/></g></g></g><g fill="#dffd6e" fill-opacity="1"><g transform="translate(242.027779, 40.034744)"><g><path d="M 57.328125 -6.46875 L 9.578125 -6.46875 L 9.578125 -9.328125 C 9.578125 -10.179688 9.769531 -10.769531 10.15625 -11.09375 C 10.539062 -11.425781 11.097656 -11.59375 11.828125 -11.59375 L 51.234375 -11.59375 C 52.859375 -11.59375 54.28125 -12.148438 55.5 -13.265625 C 56.71875 -14.378906 57.328125 -15.972656 57.328125 -18.046875 L 57.328125 -29.578125 L 3.046875 -29.578125 L 3.046875 -23.109375 L 50.796875 -23.109375 L 50.796875 -20.375 C 50.796875 -19.5625 50.5625 -18.96875 50.09375 -18.59375 C 49.625 -18.226562 49.085938 -18.046875 48.484375 -18.046875 L 9.140625 -18.046875 C 7.515625 -18.046875 6.09375 -17.457031 4.875 -16.28125 C 3.65625 -15.101562 3.046875 -13.519531 3.046875 -11.53125 L 3.046875 0 L 57.328125 0 Z M 57.328125 -6.46875 "/></g></g></g><g fill="#dffd6e" fill-opacity="1"><g transform="translate(302.387088, 40.034744)"><g><path d="M 51.171875 -29.578125 L 3.046875 -29.578125 L 3.046875 0 L 51.171875 0 C 51.941406 0 52.703125 -0.140625 53.453125 -0.421875 C 54.203125 -0.710938 54.859375 -1.128906 55.421875 -1.671875 C 55.992188 -2.222656 56.453125 -2.894531 56.796875 -3.6875 C 57.148438 -4.476562 57.328125 -5.40625 57.328125 -6.46875 L 57.328125 -23.109375 C 57.328125 -24.085938 57.148438 -24.984375 56.796875 -25.796875 C 56.453125 -26.609375 55.992188 -27.285156 55.421875 -27.828125 C 54.859375 -28.378906 54.203125 -28.804688 53.453125 -29.109375 C 52.703125 -29.421875 51.941406 -29.578125 51.171875 -29.578125 Z M 48.484375 -6.46875 L 9.578125 -6.46875 L 9.578125 -23.109375 L 48.546875 -23.109375 C 49.273438 -23.109375 49.832031 -22.851562 50.21875 -22.34375 C 50.601562 -21.84375 50.796875 -21.1875 50.796875 -20.375 L 50.796875 -9.203125 C 50.796875 -8.390625 50.5625 -7.726562 50.09375 -7.21875 C 49.625 -6.71875 49.085938 -6.46875 48.484375 -6.46875 Z M 48.484375 -6.46875 "/></g></g></g></g></g><g transform="matrix(1, 0, 0, 1, 235, 89)"><g clip-path="url(#02b5bcf181)"><g fill="#ffffff" fill-opacity="1"><g transform="translate(3.954053, 21.429314)"><g><path d="M 12.453125 0 L 7.1875 0 L 6.875 -3.578125 L 2.71875 -3.578125 L 1.125 0 L -1.0625 0 L 5.578125 -14.28125 L 10.90625 -14.28125 Z M 3.46875 -5.21875 L 6.71875 -5.21875 L 6.203125 -11.328125 Z M 3.46875 -5.21875 "/></g></g></g><g fill="#ffffff" fill-opacity="1"><g transform="translate(26.483957, 21.429314)"><g><path d="M 6 -5.109375 C 5.925781 -4.773438 5.863281 -4.488281 5.8125 -4.25 C 5.769531 -4.007812 5.75 -3.785156 5.75 -3.578125 C 5.75 -3.046875 5.929688 -2.625 6.296875 -2.3125 C 6.671875 -2 7.21875 -1.84375 7.9375 -1.84375 C 8.457031 -1.84375 8.882812 -1.929688 9.21875 -2.109375 C 9.5625 -2.296875 9.84375 -2.535156 10.0625 -2.828125 C 10.28125 -3.128906 10.453125 -3.472656 10.578125 -3.859375 C 10.703125 -4.253906 10.8125 -4.671875 10.90625 -5.109375 L 12.8125 -14.28125 L 14.859375 -14.28125 L 12.90625 -5.0625 C 12.757812 -4.34375 12.539062 -3.664062 12.25 -3.03125 C 11.96875 -2.40625 11.5625 -1.851562 11.03125 -1.375 C 10.5 -0.894531 9.8125 -0.515625 8.96875 -0.234375 C 8.132812 0.046875 7.09375 0.1875 5.84375 0.1875 C 4.125 0.1875 2.847656 -0.09375 2.015625 -0.65625 C 1.191406 -1.21875 0.78125 -2.085938 0.78125 -3.265625 C 0.78125 -3.785156 0.847656 -4.445312 0.984375 -5.25 C 1.117188 -6.0625 1.289062 -6.941406 1.5 -7.890625 L 2.875 -14.28125 L 7.984375 -14.28125 Z M 6 -5.109375 "/></g></g></g><g fill="#ffffff" fill-opacity="1"><g transform="translate(49.643464, 21.429314)"><g><path d="M 13.6875 -12.5625 L 10.078125 -12.5625 L 7.390625 0 L 2.546875 0 L 5.21875 -12.5625 L 1.640625 -12.5625 L 2.046875 -14.28125 L 14.078125 -14.28125 Z M 13.6875 -12.5625 "/></g></g></g><g fill="#ffffff" fill-opacity="1"><g transform="translate(71.116587, 21.429314)"><g><path d="M 9.234375 -14.5 C 10.523438 -14.5 11.570312 -14.332031 12.375 -14 C 13.175781 -13.675781 13.8125 -13.171875 14.28125 -12.484375 C 14.582031 -12.015625 14.8125 -11.488281 14.96875 -10.90625 C 15.132812 -10.320312 15.21875 -9.644531 15.21875 -8.875 C 15.21875 -8.21875 15.15625 -7.554688 15.03125 -6.890625 C 14.914062 -6.234375 14.75 -5.601562 14.53125 -5 C 14.3125 -4.394531 14.046875 -3.828125 13.734375 -3.296875 C 13.429688 -2.765625 13.09375 -2.296875 12.71875 -1.890625 C 12.019531 -1.117188 11.207031 -0.578125 10.28125 -0.265625 C 9.363281 0.0351562 8.226562 0.1875 6.875 0.1875 C 5.570312 0.1875 4.523438 0.0507812 3.734375 -0.21875 C 2.941406 -0.488281 2.3125 -0.925781 1.84375 -1.53125 C 1.507812 -1.945312 1.25 -2.476562 1.0625 -3.125 C 0.875 -3.769531 0.78125 -4.578125 0.78125 -5.546875 C 0.78125 -7.210938 1.078125 -8.703125 1.671875 -10.015625 C 2.265625 -11.328125 3.109375 -12.363281 4.203125 -13.125 C 4.859375 -13.59375 5.59375 -13.9375 6.40625 -14.15625 C 7.21875 -14.382812 8.160156 -14.5 9.234375 -14.5 Z M 6.703125 -1.390625 C 7.046875 -1.390625 7.367188 -1.539062 7.671875 -1.84375 C 7.984375 -2.15625 8.269531 -2.570312 8.53125 -3.09375 C 8.789062 -3.613281 9.03125 -4.203125 9.25 -4.859375 C 9.46875 -5.515625 9.648438 -6.191406 9.796875 -6.890625 C 9.953125 -7.597656 10.070312 -8.300781 10.15625 -9 C 10.238281 -9.695312 10.28125 -10.332031 10.28125 -10.90625 C 10.28125 -11.6875 10.195312 -12.222656 10.03125 -12.515625 C 9.875 -12.804688 9.648438 -12.953125 9.359375 -12.953125 C 9.015625 -12.953125 8.679688 -12.800781 8.359375 -12.5 C 8.046875 -12.195312 7.75 -11.796875 7.46875 -11.296875 C 7.195312 -10.796875 6.953125 -10.21875 6.734375 -9.5625 C 6.515625 -8.914062 6.328125 -8.242188 6.171875 -7.546875 C 6.015625 -6.859375 5.894531 -6.175781 5.8125 -5.5 C 5.726562 -4.832031 5.6875 -4.210938 5.6875 -3.640625 C 5.6875 -2.785156 5.78125 -2.195312 5.96875 -1.875 C 6.15625 -1.550781 6.398438 -1.390625 6.703125 -1.390625 Z M 6.703125 -1.390625 "/></g></g></g><g fill="#ffffff" fill-opacity="1"><g transform="translate(95.512769, 21.429314)"><g/></g></g><g fill="#ffffff" fill-opacity="1"><g transform="translate(108.801348, 21.429314)"><g><path d="M 13.78125 -11.015625 C 13.78125 -10.578125 13.71875 -10.1875 13.59375 -9.84375 C 13.46875 -9.5 13.289062 -9.191406 13.0625 -8.921875 C 12.832031 -8.648438 12.566406 -8.410156 12.265625 -8.203125 C 11.972656 -7.992188 11.644531 -7.800781 11.28125 -7.625 C 11.445312 -7.5625 11.640625 -7.46875 11.859375 -7.34375 C 12.085938 -7.21875 12.304688 -7.039062 12.515625 -6.8125 C 12.734375 -6.582031 12.910156 -6.289062 13.046875 -5.9375 C 13.191406 -5.59375 13.265625 -5.164062 13.265625 -4.65625 C 13.265625 -3.976562 13.117188 -3.351562 12.828125 -2.78125 C 12.546875 -2.21875 12.125 -1.726562 11.5625 -1.3125 C 11 -0.90625 10.3125 -0.582031 9.5 -0.34375 C 8.6875 -0.113281 7.742188 0 6.671875 0 L 0 0 L 3.03125 -14.28125 L 8.953125 -14.28125 C 9.535156 -14.28125 10.113281 -14.238281 10.6875 -14.15625 C 11.269531 -14.070312 11.785156 -13.910156 12.234375 -13.671875 C 12.691406 -13.429688 13.0625 -13.097656 13.34375 -12.671875 C 13.632812 -12.242188 13.78125 -11.691406 13.78125 -11.015625 Z M 7.671875 -8.296875 C 7.992188 -8.296875 8.269531 -8.390625 8.5 -8.578125 C 8.738281 -8.773438 8.929688 -9.019531 9.078125 -9.3125 C 9.234375 -9.613281 9.347656 -9.929688 9.421875 -10.265625 C 9.492188 -10.597656 9.53125 -10.898438 9.53125 -11.171875 C 9.53125 -11.609375 9.425781 -11.976562 9.21875 -12.28125 C 9.019531 -12.59375 8.707031 -12.75 8.28125 -12.75 L 7.59375 -12.75 L 6.640625 -8.296875 Z M 6.046875 -1.421875 C 6.492188 -1.421875 6.867188 -1.546875 7.171875 -1.796875 C 7.472656 -2.054688 7.71875 -2.375 7.90625 -2.75 C 8.101562 -3.125 8.242188 -3.515625 8.328125 -3.921875 C 8.410156 -4.335938 8.453125 -4.703125 8.453125 -5.015625 C 8.453125 -5.535156 8.34375 -5.945312 8.125 -6.25 C 7.90625 -6.5625 7.554688 -6.71875 7.078125 -6.71875 L 6.25 -6.71875 L 5.15625 -1.421875 Z M 6.046875 -1.421875 "/></g></g></g><g fill="#ffffff" fill-opacity="1"><g transform="translate(131.78096, 21.429314)"><g><path d="M 9.234375 -14.5 C 10.523438 -14.5 11.570312 -14.332031 12.375 -14 C 13.175781 -13.675781 13.8125 -13.171875 14.28125 -12.484375 C 14.582031 -12.015625 14.8125 -11.488281 14.96875 -10.90625 C 15.132812 -10.320312 15.21875 -9.644531 15.21875 -8.875 C 15.21875 -8.21875 15.15625 -7.554688 15.03125 -6.890625 C 14.914062 -6.234375 14.75 -5.601562 14.53125 -5 C 14.3125 -4.394531 14.046875 -3.828125 13.734375 -3.296875 C 13.429688 -2.765625 13.09375 -2.296875 12.71875 -1.890625 C 12.019531 -1.117188 11.207031 -0.578125 10.28125 -0.265625 C 9.363281 0.0351562 8.226562 0.1875 6.875 0.1875 C 5.570312 0.1875 4.523438 0.0507812 3.734375 -0.21875 C 2.941406 -0.488281 2.3125 -0.925781 1.84375 -1.53125 C 1.507812 -1.945312 1.25 -2.476562 1.0625 -3.125 C 0.875 -3.769531 0.78125 -4.578125 0.78125 -5.546875 C 0.78125 -7.210938 1.078125 -8.703125 1.671875 -10.015625 C 2.265625 -11.328125 3.109375 -12.363281 4.203125 -13.125 C 4.859375 -13.59375 5.59375 -13.9375 6.40625 -14.15625 C 7.21875 -14.382812 8.160156 -14.5 9.234375 -14.5 Z M 6.703125 -1.390625 C 7.046875 -1.390625 7.367188 -1.539062 7.671875 -1.84375 C 7.984375 -2.15625 8.269531 -2.570312 8.53125 -3.09375 C 8.789062 -3.613281 9.03125 -4.203125 9.25 -4.859375 C 9.46875 -5.515625 9.648438 -6.191406 9.796875 -6.890625 C 9.953125 -7.597656 10.070312 -8.300781 10.15625 -9 C 10.238281 -9.695312 10.28125 -10.332031 10.28125 -10.90625 C 10.28125 -11.6875 10.195312 -12.222656 10.03125 -12.515625 C 9.875 -12.804688 9.648438 -12.953125 9.359375 -12.953125 C 9.015625 -12.953125 8.679688 -12.800781 8.359375 -12.5 C 8.046875 -12.195312 7.75 -11.796875 7.46875 -11.296875 C 7.195312 -10.796875 6.953125 -10.21875 6.734375 -9.5625 C 6.515625 -8.914062 6.328125 -8.242188 6.171875 -7.546875 C 6.015625 -6.859375 5.894531 -6.175781 5.8125 -5.5 C 5.726562 -4.832031 5.6875 -4.210938 5.6875 -3.640625 C 5.6875 -2.785156 5.78125 -2.195312 5.96875 -1.875 C 6.15625 -1.550781 6.398438 -1.390625 6.703125 -1.390625 Z M 6.703125 -1.390625 "/></g></g></g><g fill="#ffffff" fill-opacity="1"><g transform="translate(156.177141, 21.429314)"><g><path d="M 6 -5.109375 C 5.925781 -4.773438 5.863281 -4.488281 5.8125 -4.25 C 5.769531 -4.007812 5.75 -3.785156 5.75 -3.578125 C 5.75 -3.046875 5.929688 -2.625 6.296875 -2.3125 C 6.671875 -2 7.21875 -1.84375 7.9375 -1.84375 C 8.457031 -1.84375 8.882812 -1.929688 9.21875 -2.109375 C 9.5625 -2.296875 9.84375 -2.535156 10.0625 -2.828125 C 10.28125 -3.128906 10.453125 -3.472656 10.578125 -3.859375 C 10.703125 -4.253906 10.8125 -4.671875 10.90625 -5.109375 L 12.8125 -14.28125 L 14.859375 -14.28125 L 12.90625 -5.0625 C 12.757812 -4.34375 12.539062 -3.664062 12.25 -3.03125 C 11.96875 -2.40625 11.5625 -1.851562 11.03125 -1.375 C 10.5 -0.894531 9.8125 -0.515625 8.96875 -0.234375 C 8.132812 0.046875 7.09375 0.1875 5.84375 0.1875 C 4.125 0.1875 2.847656 -0.09375 2.015625 -0.65625 C 1.191406 -1.21875 0.78125 -2.085938 0.78125 -3.265625 C 0.78125 -3.785156 0.847656 -4.445312 0.984375 -5.25 C 1.117188 -6.0625 1.289062 -6.941406 1.5 -7.890625 L 2.875 -14.28125 L 7.984375 -14.28125 Z M 6 -5.109375 "/></g></g></g><g fill="#ffffff" fill-opacity="1"><g transform="translate(179.336648, 21.429314)"><g><path d="M 13.6875 -12.5625 L 10.078125 -12.5625 L 7.390625 0 L 2.546875 0 L 5.21875 -12.5625 L 1.640625 -12.5625 L 2.046875 -14.28125 L 14.078125 -14.28125 Z M 13.6875 -12.5625 "/></g></g></g><g fill="#ffffff" fill-opacity="1"><g transform="translate(200.809771, 21.429314)"><g><path d="M 4.859375 0 L 0 0 L 3.03125 -14.28125 L 7.921875 -14.28125 Z M 4.859375 0 "/></g></g></g><g fill="#ffffff" fill-opacity="1"><g transform="translate(217.133828, 21.429314)"><g><path d="M 9.234375 -14.5 C 10.523438 -14.5 11.570312 -14.332031 12.375 -14 C 13.175781 -13.675781 13.8125 -13.171875 14.28125 -12.484375 C 14.582031 -12.015625 14.8125 -11.488281 14.96875 -10.90625 C 15.132812 -10.320312 15.21875 -9.644531 15.21875 -8.875 C 15.21875 -8.21875 15.15625 -7.554688 15.03125 -6.890625 C 14.914062 -6.234375 14.75 -5.601562 14.53125 -5 C 14.3125 -4.394531 14.046875 -3.828125 13.734375 -3.296875 C 13.429688 -2.765625 13.09375 -2.296875 12.71875 -1.890625 C 11.820312 -0.898438 10.675781 -0.269531 9.28125 0 C 9.675781 0.382812 10.128906 0.703125 10.640625 0.953125 C 11.148438 1.203125 11.671875 1.382812 12.203125 1.5 C 11.535156 2 10.9375 2.441406 10.40625 2.828125 C 10.1875 2.992188 9.96875 3.15625 9.75 3.3125 C 9.53125 3.46875 9.335938 3.609375 9.171875 3.734375 C 9.003906 3.867188 8.863281 3.96875 8.75 4.03125 C 8.644531 4.101562 8.59375 4.140625 8.59375 4.140625 C 8.113281 3.835938 7.695312 3.503906 7.34375 3.140625 C 6.988281 2.785156 6.6875 2.421875 6.4375 2.046875 C 6.195312 1.679688 5.992188 1.332031 5.828125 1 C 5.671875 0.664062 5.550781 0.367188 5.46875 0.109375 C 4.582031 0.0351562 3.847656 -0.132812 3.265625 -0.40625 C 2.691406 -0.675781 2.21875 -1.050781 1.84375 -1.53125 C 1.507812 -1.945312 1.25 -2.476562 1.0625 -3.125 C 0.875 -3.769531 0.78125 -4.578125 0.78125 -5.546875 C 0.78125 -7.210938 1.078125 -8.703125 1.671875 -10.015625 C 2.265625 -11.328125 3.109375 -12.363281 4.203125 -13.125 C 4.859375 -13.59375 5.59375 -13.9375 6.40625 -14.15625 C 7.21875 -14.382812 8.160156 -14.5 9.234375 -14.5 Z M 6.703125 -1.390625 C 7.046875 -1.390625 7.367188 -1.539062 7.671875 -1.84375 C 7.984375 -2.15625 8.269531 -2.570312 8.53125 -3.09375 C 8.789062 -3.613281 9.03125 -4.203125 9.25 -4.859375 C 9.46875 -5.515625 9.648438 -6.191406 9.796875 -6.890625 C 9.953125 -7.597656 10.070312 -8.300781 10.15625 -9 C 10.238281 -9.695312 10.28125 -10.332031 10.28125 -10.90625 C 10.28125 -11.6875 10.195312 -12.222656 10.03125 -12.515625 C 9.875 -12.804688 9.648438 -12.953125 9.359375 -12.953125 C 9.015625 -12.953125 8.679688 -12.800781 8.359375 -12.5 C 8.046875 -12.195312 7.75 -11.796875 7.46875 -11.296875 C 7.195312 -10.796875 6.953125 -10.21875 6.734375 -9.5625 C 6.515625 -8.914062 6.328125 -8.242188 6.171875 -7.546875 C 6.015625 -6.859375 5.894531 -6.175781 5.8125 -5.5 C 5.726562 -4.832031 5.6875 -4.210938 5.6875 -3.640625 C 5.6875 -2.785156 5.78125 -2.195312 5.96875 -1.875 C 6.15625 -1.550781 6.398438 -1.390625 6.703125 -1.390625 Z M 6.703125 -1.390625 "/></g></g></g><g fill="#ffffff" fill-opacity="1"><g transform="translate(241.530009, 21.429314)"><g><path d="M 6 -5.109375 C 5.925781 -4.773438 5.863281 -4.488281 5.8125 -4.25 C 5.769531 -4.007812 5.75 -3.785156 5.75 -3.578125 C 5.75 -3.046875 5.929688 -2.625 6.296875 -2.3125 C 6.671875 -2 7.21875 -1.84375 7.9375 -1.84375 C 8.457031 -1.84375 8.882812 -1.929688 9.21875 -2.109375 C 9.5625 -2.296875 9.84375 -2.535156 10.0625 -2.828125 C 10.28125 -3.128906 10.453125 -3.472656 10.578125 -3.859375 C 10.703125 -4.253906 10.8125 -4.671875 10.90625 -5.109375 L 12.8125 -14.28125 L 14.859375 -14.28125 L 12.90625 -5.0625 C 12.757812 -4.34375 12.539062 -3.664062 12.25 -3.03125 C 11.96875 -2.40625 11.5625 -1.851562 11.03125 -1.375 C 10.5 -0.894531 9.8125 -0.515625 8.96875 -0.234375 C 8.132812 0.046875 7.09375 0.1875 5.84375 0.1875 C 4.125 0.1875 2.847656 -0.09375 2.015625 -0.65625 C 1.191406 -1.21875 0.78125 -2.085938 0.78125 -3.265625 C 0.78125 -3.785156 0.847656 -4.445312 0.984375 -5.25 C 1.117188 -6.0625 1.289062 -6.941406 1.5 -7.890625 L 2.875 -14.28125 L 7.984375 -14.28125 Z M 6 -5.109375 "/></g></g></g><g fill="#ffffff" fill-opacity="1"><g transform="translate(264.689516, 21.429314)"><g><path d="M 3.03125 -14.28125 L 12.5 -14.28125 L 12.140625 -12.5625 L 7.5625 -12.5625 L 6.609375 -8.234375 L 10.453125 -8.234375 L 10.09375 -6.546875 L 6.25 -6.546875 L 5.21875 -1.734375 L 9.796875 -1.734375 L 9.46875 0 L 0 0 Z M 3.03125 -14.28125 "/></g></g></g></g></g></svg>